<svg width="52" height="42" viewBox="0 0 52 42" fill="none" xmlns="http://www.w3.org/2000/svg">
<path d="M44.1992 0C39.9002 0 36.3985 3.5146 36.3985 7.82955C36.3985 12.1445 39.9002 15.6591 44.1992 15.6591C48.4983 15.6591 52 12.1445 52 7.82955C52 3.5146 48.4983 0 44.1992 0ZM44.1992 1.7399C47.5622 1.7399 50.2665 4.45414 50.2665 7.82955C50.2665 11.2049 47.5622 13.9192 44.1992 13.9192C40.8363 13.9192 38.132 11.2049 38.132 7.82955C38.132 4.45414 40.8363 1.7399 44.1992 1.7399ZM44.1992 3.4798C43.7191 3.4798 43.3325 3.8678 43.3325 4.34975V6.9596H40.7323C40.2521 6.9596 39.8655 7.34759 39.8655 7.82955C39.8655 8.3115 40.2521 8.69949 40.7323 8.69949H43.3325V11.3093C43.3325 11.7913 43.7191 12.1793 44.1992 12.1793C44.6794 12.1793 45.066 11.7913 45.066 11.3093V8.69949H47.6663C48.1464 8.69949 48.533 8.3115 48.533 7.82955C48.533 7.34759 48.1464 6.9596 47.6663 6.9596H45.066V4.34975C45.066 3.8678 44.6794 3.4798 44.1992 3.4798ZM18.1968 22.6187H40.7323C41.2124 22.6187 41.599 23.0067 41.599 23.4886C41.599 23.9706 41.2124 24.3586 40.7323 24.3586H18.1968C17.7166 24.3586 17.33 23.9706 17.33 23.4886C17.33 23.0067 17.7166 22.6187 18.1968 22.6187ZM16.4633 15.6591H37.2653C37.7454 15.6591 38.132 16.0471 38.132 16.529C38.132 17.011 37.7454 17.399 37.2653 17.399H16.4633C15.9831 17.399 15.5965 17.011 15.5965 16.529C15.5965 16.0471 15.9831 15.6591 16.4633 15.6591ZM37.2653 33.0581C34.8817 33.0581 32.9315 35.0155 32.9315 37.4078C32.9315 39.8002 34.8817 41.7576 37.2653 41.7576C39.6488 41.7576 41.599 39.8002 41.599 37.4078C41.599 35.0155 39.6488 33.0581 37.2653 33.0581ZM37.2653 34.798C38.711 34.798 39.8655 35.9568 39.8655 37.4078C39.8655 38.8589 38.711 40.0177 37.2653 40.0177C35.8195 40.0177 34.665 38.8589 34.665 37.4078C34.665 35.9568 35.8195 34.798 37.2653 34.798ZM19.9303 33.0581C17.5467 33.0581 15.5965 35.0155 15.5965 37.4078C15.5965 39.8002 17.5467 41.7576 19.9303 41.7576C22.3138 41.7576 24.264 39.8002 24.264 37.4078C24.264 35.0155 22.3138 33.0581 19.9303 33.0581ZM19.9303 34.798C21.376 34.798 22.5305 35.9568 22.5305 37.4078C22.5305 38.8589 21.376 40.0177 19.9303 40.0177C18.4845 40.0177 17.33 38.8589 17.33 37.4078C17.33 35.9568 18.4845 34.798 19.9303 34.798ZM0.87564 1.7399C-0.285805 1.7399 -0.297939 3.4798 0.87564 3.4798H7.10237C7.23065 4.09746 8.21181 8.79519 9.38019 14.3194C10.0008 17.2528 10.6352 20.2455 11.1449 22.6117C11.6528 24.978 12.0203 26.6605 12.1642 27.1929C12.393 28.0524 12.608 29.0285 13.239 29.8793C13.8665 30.7284 14.9725 31.3164 16.4633 31.3164H40.7184C42.2092 31.3164 43.3152 30.7284 43.9462 29.8793C44.5754 29.0267 44.7886 28.0524 45.0209 27.1911C45.1717 26.6135 45.4092 25.272 45.7317 23.5896C46.0489 21.9018 46.4251 19.9479 46.7718 18.4621C47.0578 17.3955 45.2879 16.931 45.0868 18.0689C44.7297 19.6069 44.3466 21.5695 44.0259 23.2607C43.7052 24.9536 43.4244 26.4482 43.3464 26.7405C43.1106 27.6209 42.8905 28.3847 42.5542 28.8388C42.2179 29.2947 41.8261 29.5765 40.7201 29.5765H16.4633C15.3573 29.5765 14.9655 29.2947 14.6258 28.8388C14.2912 28.3864 14.071 27.6209 13.8353 26.7422C13.7486 26.4064 13.3499 24.6074 12.8403 22.2446C12.3323 19.8818 11.6961 16.8927 11.0773 13.9557C9.8361 8.08705 8.65038 2.43064 8.65038 2.43064C8.56718 2.03046 8.21354 1.74164 7.80097 1.74164L0.87564 1.7399ZM14.7332 8.69949C13.5805 8.69949 13.5943 10.4394 14.7332 10.4394H32.0544C33.2193 10.4394 33.1933 8.69949 32.0544 8.69949H14.7332Z" fill="#BAE8F5"/>
</svg>
