<svg width="57" height="59" viewBox="0 0 57 59" fill="none" xmlns="http://www.w3.org/2000/svg">
<path d="M48.7606 5.25C46.6606 1.75 42.8106 0 38.6106 0H17.6106C13.4106 0 9.56056 1.75 7.46056 5.25C-0.589444 17.5 -2.33944 36.05 3.26056 39.9C8.86056 43.75 21.4606 26.95 28.1106 26.95C34.7606 26.95 47.0106 43.75 52.9606 39.9C58.5606 36.05 56.8106 17.5 48.7606 5.25ZM21.1106 17.5H17.6106V21H14.1106V17.5H10.6106V14H14.1106V10.5H17.6106V14H21.1106V17.5ZM40.0106 19.25C40.0106 21 38.6106 22.4 36.8606 22.4C35.1106 22.4 33.7106 21 33.7106 19.25C33.7106 17.5 35.1106 16.1 36.8606 16.1C38.6106 16.1 40.0106 17.5 40.0106 19.25ZM46.6606 12.25C46.6606 14 45.2606 15.4 43.5106 15.4C41.7606 15.4 40.3606 14 40.3606 12.25C40.3606 10.5 41.7606 9.1 43.5106 9.1C45.2606 9.1 46.6606 10.5 46.6606 12.25Z" fill="#BAE8F5"/>
<path d="M3.5625 55.3125V43.5938L5.04688 42.8906H5.125V48.3906H9.73438V43.5938L11.2188 42.8906H11.2969V54.6094L9.8125 55.3125H9.73438V49.8125H5.125V54.6094L3.64062 55.3125H3.5625ZM14.0312 49.8125V49.7344L14.6641 48.3906H21.1719V48.4688L20.5391 49.8125H14.0312ZM23.9062 55.3125V43.5938L24.7344 43.2031H27.6953C28.4818 43.2031 29.2057 43.3411 29.8672 43.6172C31.0495 44.1068 31.6406 44.8281 31.6406 45.7812V48.4375C31.6406 49.3906 31.0495 50.112 29.8672 50.6016C29.2057 50.8776 28.4818 51.0156 27.6953 51.0156H25.4688V54.6094L23.9844 55.3125H23.9062ZM25.4688 49.6094H27.6953C28.2161 49.6094 28.6953 49.5234 29.1328 49.3516C29.763 49.1016 30.0781 48.7969 30.0781 48.4375V45.7812C30.0781 45.4167 29.763 45.112 29.1328 44.8672C28.6953 44.6953 28.2161 44.6094 27.6953 44.6094H25.4688V49.6094ZM34.375 55.3125V43.5938L35.8594 42.8906H35.9375V54.6094L34.4531 55.3125H34.375ZM44.6094 54.6094L43.125 55.3125H43.0469V54.8906C42.5469 55.0677 42.013 55.1562 41.4453 55.1562C40.8359 55.1562 40.2682 55.0547 39.7422 54.8516C38.7682 54.4661 38.2812 53.9297 38.2812 53.2422V51.1328C38.2812 50.4349 38.7682 49.8984 39.7422 49.5234C40.2682 49.3203 40.8359 49.2188 41.4453 49.2188C42.0182 49.2188 42.5521 49.3073 43.0469 49.4844V48.4375C43.0469 48.1771 42.8828 47.9818 42.5547 47.8516C42.2318 47.7214 41.8359 47.6562 41.3672 47.6562H39.4688V47.5781L40.0938 46.25H41.3672C42.0286 46.25 42.6224 46.3516 43.1484 46.5547C44.1224 46.9297 44.6094 47.4661 44.6094 48.1641V54.6094ZM39.8438 52.9688C39.8438 53.2292 40.0052 53.4245 40.3281 53.5547C40.6562 53.6849 41.0286 53.75 41.4453 53.75C41.862 53.75 42.2318 53.6849 42.5547 53.5547C42.8828 53.4245 43.0469 53.2292 43.0469 52.9688V51.4062C43.0469 51.1458 42.8828 50.9505 42.5547 50.8203C42.2318 50.6901 41.862 50.625 41.4453 50.625C41.0286 50.625 40.6562 50.6901 40.3281 50.8203C40.0052 50.9505 39.8438 51.1458 39.8438 51.4062V52.9688ZM46.9531 46.7969L48.4375 46.0938H48.5156V52.9688C48.5156 53.2292 48.6771 53.4245 49 53.5547C49.3281 53.6849 49.7266 53.75 50.1953 53.75C50.6641 53.75 51.0599 53.6849 51.3828 53.5547C51.7109 53.4245 51.875 53.2292 51.875 52.9688V46.7969L53.3594 46.0938H53.4375V56.4453C53.4375 57.1432 52.9505 57.6797 51.9766 58.0547C51.4505 58.2578 50.8568 58.3594 50.1953 58.3594H47.7656V58.2812L48.3906 56.9531H50.1953C50.6641 56.9531 51.0599 56.888 51.3828 56.7578C51.7109 56.6276 51.875 56.4323 51.875 56.1719V54.8906C51.375 55.0677 50.8151 55.1562 50.1953 55.1562C49.5339 55.1562 48.9401 55.0547 48.4141 54.8516C47.4401 54.4766 46.9531 53.9401 46.9531 53.2422V46.7969Z" fill="#BAE8F5"/>
</svg>
